<svg width="271" height="71" viewBox="0 0 271 71" fill="none" xmlns="http://www.w3.org/2000/svg">
<path d="M47.3932 32.5806C48.6932 28.1975 57.1932 24.0136 51.5932 19.4312C41.4932 16.4427 34.6932 26.7032 27.9932 31.8833C25.2932 27.8986 36.2932 25.0098 29.2932 20.8258C30.2932 13.9523 38.6932 10.1668 35.5932 1.59979C30.3932 -4.27761 30.5932 8.27412 24.9932 3.69174L24.3932 4.28944L23.5932 3.69174L22.2932 8.47335C17.6932 13.255 22.2932 19.1324 20.8932 25.0098C18.3932 27.8986 14.6932 27.6994 11.8932 29.1937C9.69324 28.0979 8.19324 26.1055 7.69324 23.7147C8.99324 20.527 12.2932 21.822 14.5932 20.8258C17.0932 19.8297 15.5932 17.2396 15.9932 15.3469C13.4932 13.0557 11.3932 10.0672 7.69324 10.5653C3.29324 12.458 7.09324 16.0442 6.89324 18.7339C1.99324 24.2128 4.89324 30.8871 4.29324 38.1592C3.89324 41.9446 -0.706764 44.0366 0.0932363 48.4197C1.59324 49.2166 2.99324 50.1132 4.89324 49.7147C12.7932 49.5155 12.3932 39.6534 16.0932 34.6726C21.0932 31.4848 22.2932 38.6573 25.0932 40.7492C30.8932 41.6458 30.4932 32.9791 36.2932 31.0864C38.5932 40.0519 37.8932 50.9101 37.0932 59.9753C36.6932 63.0634 35.1932 67.2473 37.6932 69.6381C39.1932 71.5308 40.7932 69.4389 41.8932 68.3431C41.2932 58.0825 40.5932 47.6228 39.7932 37.3622C40.6932 33.3776 45.0932 34.8718 47.3932 32.5806ZM48.1932 24.2128C47.2932 27.2013 44.8932 29.5921 41.7932 30.4887C39.6932 25.6075 44.8932 24.8105 48.1932 24.2128Z" fill="black"/>
<path d="M111.292 21.822C111.592 23.1171 111.092 24.5117 109.992 25.209C106.292 26.9025 104.392 22.3201 101.692 23.914C98.5922 22.4197 103.192 19.5309 103.592 17.0404C106.792 17.2397 109.192 19.5309 111.292 21.822ZM95.2922 25.209C95.5922 26.504 95.0922 27.8987 93.9922 28.596C91.4922 29.6918 89.9922 26.7033 89.1922 25.209C88.8922 23.914 89.3922 22.5194 90.5922 21.822C92.5922 21.6228 94.0922 24.3125 95.2922 25.209ZM111.292 38.3584C104.392 32.481 94.7922 37.0634 89.1922 42.5424C89.1922 44.6343 88.9922 46.9255 89.7922 48.619C91.2922 50.3125 92.0922 54.2971 95.3922 53.5998C97.0922 47.5232 102.892 53.7991 106.592 50.7109C104.892 45.4312 111.792 43.3393 111.292 38.3584ZM94.4922 45.9293C93.6922 45.5309 93.8922 44.6343 93.8922 43.8374C96.3922 42.7416 98.8922 41.1477 102.192 41.7454C100.692 44.2358 97.7922 48.0213 94.4922 45.9293ZM85.1922 26.1056V26.2052C85.2922 23.4159 85.1922 20.527 84.8922 17.7378C82.1922 14.8489 84.0922 8.47339 78.5922 8.77224C75.4922 9.76841 75.0922 12.9561 74.5922 15.6458C76.6922 18.8335 80.1922 19.232 82.8922 21.1247C82.0922 23.4159 83.0922 26.2052 80.7922 27.9983C79.6922 26.6037 79.2922 25.3086 77.1922 23.914C74.9922 23.5155 74.9922 26.2052 74.7922 26.3048C74.3922 26.6037 73.4922 24.9102 72.9922 25.0098C72.1922 25.0098 71.0922 25.4083 70.9922 26.3048C70.9922 26.7033 70.9922 27.2014 71.0922 27.5998C71.3922 31.7837 70.4922 36.0673 68.4922 39.7531C66.4922 43.2397 63.8922 46.4274 60.8922 49.0175C58.9922 50.6113 57.0922 52.1056 54.9922 53.5002L56.4922 55.5922C61.2922 55.3929 63.9922 50.2129 68.2922 48.5194C70.5922 49.4159 69.4922 51.7071 69.5922 53.5002C70.7922 54.9945 69.7922 58.5807 73.0922 58.2818C73.6922 56.3891 72.2922 55.2933 72.4922 53.5002C77.0922 49.3163 77.8922 58.0826 82.0922 58.9791L83.5922 57.4849C82.3922 48.0213 84.2922 38.6573 84.9922 29.2933V29.3929C84.9922 29.3929 85.7922 29.4925 85.9922 27.2014C86.0922 25.7071 85.1922 26.1056 85.1922 26.1056ZM72.1922 48.9178C71.7922 48.9178 72.5922 46.2282 72.5922 46.2282C73.0922 46.9255 73.3922 47.7224 73.5922 48.619C73.4922 49.5155 72.5922 49.0174 72.1922 48.9178ZM80.2922 50.0136C77.5922 48.5194 79.4922 41.2473 79.4922 39.5538C81.6922 41.6458 80.5922 47.6228 80.2922 50.0136Z" fill="black"/>
<path d="M154.291 27.4006C154.491 29.4926 154.291 31.5845 152.191 32.8795C149.091 33.278 145.891 32.4811 144.491 29.9906C145.291 27.1018 145.291 22.9178 145.291 20.527C148.691 21.7224 153.291 23.2167 154.291 27.4006ZM172.391 34.2742C171.991 35.9677 173.191 38.2588 171.091 39.0558C169.191 39.4542 167.191 38.6573 166.091 36.9638C165.891 35.4696 166.891 34.2742 167.591 32.9791C166.091 31.983 167.191 30.4887 167.591 29.5922C170.491 29.2933 171.591 31.983 172.391 34.2742ZM134.891 32.1822L130.691 42.4427C133.391 44.3355 136.291 42.0443 138.991 41.845C147.091 41.2473 155.191 40.7493 162.091 36.8642L162.691 37.6611C154.591 46.9255 139.391 39.1554 130.691 47.324C126.891 47.9217 122.991 46.7263 121.691 43.1401C123.391 38.1592 128.991 33.4772 133.391 30.7876L134.891 32.1822Z" fill="black"/>
<path d="M220.593 17.4389C218.093 21.6228 221.893 24.8106 224.093 27.6995C222.593 31.2857 216.293 32.1822 213.593 34.6726C212.793 32.9792 216.593 30.9868 217.193 29.7914C217.393 25.4083 213.893 20.527 217.993 16.8412C218.893 17.0405 220.193 16.2435 220.593 17.4389ZM189.993 24.3125C188.293 30.3891 196.893 38.9562 187.893 40.8489C186.793 35.37 190.593 30.1899 186.593 25.8067C187.193 24.6113 188.593 24.0136 189.993 24.3125ZM213.093 38.7569C211.393 37.5615 210.993 36.0673 210.193 34.7723C212.693 30.9868 211.193 25.4083 211.493 20.9255C210.193 18.4351 211.893 12.9562 207.493 13.5539C205.393 15.6458 203.993 12.3585 202.493 11.4619C198.093 11.8604 198.693 16.5424 197.693 19.6305C200.793 21.0251 201.193 15.6458 204.593 17.5385C206.093 18.6343 206.693 20.2282 207.493 21.7225C204.993 25.3087 202.293 23.6152 198.993 23.0175C197.293 26.2052 196.593 29.6918 196.893 33.278C198.993 37.0634 203.793 34.9715 206.693 34.7723C207.493 34.3738 208.393 34.6726 208.793 35.4696C208.993 35.868 208.993 36.2665 208.893 36.665C208.493 37.6611 207.593 37.4619 206.793 37.4619C202.193 46.029 191.593 43.3393 184.493 47.7225C184.493 48.5194 184.293 49.4159 185.293 49.8144C191.293 47.7225 197.393 45.8297 203.393 43.7378L205.493 45.8297C206.293 47.7225 206.993 51.3087 203.993 52.7033C199.193 52.3048 191.693 49.8144 187.993 54.7952L189.493 56.0903C190.293 55.891 191.593 56.688 192.193 55.2933C194.893 54.0979 197.993 54.3968 200.493 56.0903C203.193 57.0864 206.993 57.1861 208.993 54.7952C211.093 50.8106 207.093 43.0405 212.493 41.6458C216.393 43.1401 222.893 42.7416 227.093 40.8489C224.193 35.6688 218.293 39.0558 213.093 38.7569ZM202.493 31.8834C200.893 30.5884 199.593 28.2972 201.193 26.4044C203.493 26.4044 206.993 26.2052 206.793 29.2933C206.693 31.6841 204.993 32.2818 202.493 31.8834ZM225.593 49.2167C226.093 50.8106 225.293 52.5041 223.693 53.0021C223.393 53.1018 222.993 53.2014 222.693 53.2014C220.193 53.5998 219.193 50.2129 217.093 49.8144C216.693 46.5271 220.593 47.1247 222.693 47.1247C223.693 47.6228 224.193 49.2167 225.593 49.2167Z" fill="black"/>
<path d="M269.992 17.2397C262.092 9.4696 247.292 14.052 239.392 18.5347C242.692 19.6305 245.692 16.2435 249.792 17.2397C250.992 18.3355 252.492 19.3317 251.892 21.2244C249.992 23.3163 247.292 23.1171 244.992 24.1133C245.392 27.301 247.292 23.5156 249.192 24.711C249.792 25.7071 250.892 26.2052 250.592 27.5999C249.192 30.7876 244.792 30.2895 241.492 30.2895C239.192 28.596 241.492 27.2014 240.692 24.8106C240.892 23.7148 239.492 23.3163 238.592 23.5156V32.4811C237.792 38.9562 233.992 48.0213 239.392 53.2014C239.792 52.8029 240.192 52.2052 240.792 52.4045C241.592 48.619 245.992 47.4236 248.492 44.8336C251.192 45.232 250.392 48.0213 251.192 49.8144C250.592 52.7033 247.492 52.7033 244.992 52.5041C244.992 53.301 244.792 54.1976 245.592 54.596C250.992 53.5999 256.792 53.7991 261.792 51.7071C260.992 49.0175 260.792 46.1286 261.392 43.4389C261.492 43.4389 261.592 43.5386 261.692 43.5386C262.592 43.5386 263.392 42.8412 263.392 41.8451C263.392 41.1478 262.992 40.4504 262.292 40.2512C262.292 40.2512 262.292 40.1516 262.392 40.1516C255.092 38.4581 262.392 49.5156 256.792 51.2091L254.092 49.1171C252.492 44.0366 253.792 38.4581 257.592 34.6727C258.892 31.2857 257.192 26.5041 261.792 24.4121C261.392 24.0137 260.792 23.6152 260.992 23.1171C256.792 23.7148 260.792 18.5347 257.492 17.6382L258.792 16.1439C261.092 16.3432 263.592 15.9447 265.192 17.6382C265.392 29.393 267.692 42.1439 265.792 53.4006C265.992 54.8949 268.092 56.1899 269.292 54.6957C271.492 41.9447 267.692 29.5922 269.992 17.2397ZM244.992 43.2397C244.192 44.3355 242.792 44.8336 241.492 44.5347C240.492 40.9485 239.792 35.37 242.092 32.1822C243.992 31.3853 243.992 33.4773 244.992 34.2742C243.992 35.37 244.192 36.9638 244.192 38.4581C246.492 39.255 245.692 42.1439 244.992 43.2397ZM250.592 35.6688L248.192 37.3623C248.192 36.0673 250.192 30.9868 251.992 30.7876C252.492 32.2819 250.892 34.4734 250.592 35.6688Z" fill="black"/>
</svg>
